<svg xmlns="http://www.w3.org/2000/svg" viewBox="142.651 11.238 61.546 61.546" preserveAspectRatio="xMidYMid meet" version="1.2" baseProfile="tiny-ps" xml:space="preserve"><title>Sharkfood</title>
  <path id="path116" style="fill:#008bc0;fill-opacity:1;fill-rule:nonzero;stroke:none" d="M 173.465 72.866 C 161.799 72.866 151.267 66.399 145.978 55.994 C 145.561 55.172 145.889 54.171 146.709 53.754 C 147.531 53.338 148.533 53.663 148.95 54.483 C 153.667 63.764 163.061 69.532 173.465 69.532 C 183.198 69.532 192.297 64.306 197.211 55.892 C 198.558 53.584 199.558 51.1 200.182 48.506 C 200.369 47.73 200.527 47.046 200.65 46.327 L 183.986 46.327 C 183.537 46.327 183.106 46.147 182.793 45.824 C 182.478 45.502 182.307 45.066 182.321 44.615 C 182.321 44.571 182.382 39.423 178.837 34.811 C 174.989 29.808 169.995 28.308 166.685 27.902 C 168.846 30.808 169.89 33.792 169.797 36.814 C 169.625 42.314 165.674 45.78 165.506 45.923 C 165.203 46.183 164.818 46.327 164.418 46.327 L 144.453 46.327 C 143.594 46.327 142.875 45.675 142.794 44.819 C 142.709 43.931 142.651 43.118 142.651 42.051 C 142.651 40.448 142.775 38.839 143.022 37.267 C 145.374 22.186 158.177 11.238 173.465 11.238 C 187.058 11.238 198.89 19.954 202.905 32.928 C 203.177 33.808 202.685 34.74 201.805 35.014 C 200.926 35.284 199.993 34.792 199.719 33.915 C 196.139 22.344 185.589 14.571 173.465 14.571 C 159.83 14.571 148.413 24.332 146.315 37.78 C 146.097 39.183 145.985 40.62 145.985 42.051 C 145.985 42.392 145.991 42.702 146.003 42.994 L 163.733 42.994 C 164.561 42.103 166.382 39.79 166.465 36.671 C 166.547 33.614 164.97 30.483 161.777 27.363 C 161.319 26.918 161.159 26.248 161.362 25.642 C 161.565 25.035 162.098 24.598 162.733 24.516 C 163.194 24.462 174.109 23.196 181.479 32.78 C 184.449 36.642 185.31 40.748 185.557 42.994 L 202.53 42.994 C 202.994 42.994 203.437 43.188 203.751 43.527 C 204.067 43.866 204.227 44.322 204.193 44.784 C 204.062 46.535 203.779 47.806 203.423 49.287 C 202.722 52.196 201.602 54.983 200.09 57.571 C 194.579 67.006 184.378 72.866 173.465 72.866"/>
</svg>